<?xml version="1.0" standalone="no"?><!DOCTYPE svg PUBLIC "-//W3C//DTD SVG 1.1//EN" "http://www.w3.org/Graphics/SVG/1.1/DTD/svg11.dtd"><svg t="1643295678380" class="icon" viewBox="0 0 1024 1024" version="1.1" xmlns="http://www.w3.org/2000/svg" p-id="12885" width="32" height="32" xmlns:xlink="http://www.w3.org/1999/xlink"><defs><style type="text/css"></style></defs><path d="M891 216H375a4 4 0 0 0-4 4v64a4 4 0 0 0 4 4h516a4 4 0 0 0 4-4v-64a4 4 0 0 0-4-4z m0 260H375a4 4 0 0 0-4 4v64a4 4 0 0 0 4 4h516a4 4 0 0 0 4-4v-64a4 4 0 0 0-4-4z m0 260H375a4 4 0 0 0-4 4v64a4 4 0 0 0 4 4h516a4 4 0 0 0 4-4v-64a4 4 0 0 0-4-4zM213 166a86 86 0 1 0 86 86 86 86 0 0 0-86-86z m0 520a86 86 0 1 0 86 86 86 86 0 0 0-86-86z m0-260a86 86 0 1 0 86 86 86 86 0 0 0-86-86z" p-id="12886" fill="#515151"></path></svg>